<svg width="14" height="12" viewBox="0 0 14 12" fill="none" xmlns="http://www.w3.org/2000/svg">
<path fill-rule="evenodd" clip-rule="evenodd" d="M0.812576 5.79419C0.812576 5.37998 1.14836 5.04419 1.56258 5.04419L12.8126 5.04419C13.2268 5.04419 13.5626 5.37998 13.5626 5.79419C13.5626 6.2084 13.2268 6.54419 12.8126 6.54419L1.56258 6.54419C1.14836 6.54419 0.812576 6.2084 0.812576 5.79419Z" fill="white"/>
<path fill-rule="evenodd" clip-rule="evenodd" d="M7.61465 0.920028C7.81118 0.555408 8.26608 0.419147 8.6307 0.61568L8.27485 1.27588C8.6307 0.61568 8.63055 0.615599 8.6307 0.61568L8.63245 0.616622L8.63584 0.618461L8.64747 0.624794L8.68937 0.647867C8.72531 0.667787 8.77694 0.696692 8.84202 0.73389C8.9721 0.808245 9.15634 0.915983 9.37677 1.05157C9.81622 1.32187 10.4063 1.70702 11.0001 2.16266C11.5896 2.6149 12.2071 3.15505 12.6841 3.73884C13.1466 4.30483 13.5623 5.01489 13.5623 5.79313C13.5623 6.57159 13.1468 7.28192 12.6843 7.84826C12.2072 8.43235 11.5897 8.97276 11.0003 9.42519C10.4064 9.88104 9.81633 10.2663 9.37688 10.5367C9.15644 10.6724 8.97219 10.7802 8.84211 10.8545C8.77703 10.8917 8.7254 10.9207 8.68946 10.9406L8.64756 10.9637L8.63593 10.97L8.63253 10.9718L8.63145 10.9724C8.6313 10.9725 8.63079 10.9728 8.27485 10.3126L8.63145 10.9724C8.26686 11.169 7.81127 11.0332 7.61469 10.6686C7.41814 10.304 7.55427 9.8492 7.91873 9.65257C7.91879 9.65254 7.91867 9.6526 7.91873 9.65257L7.92035 9.65169L7.92817 9.64743L7.96215 9.62871C7.99268 9.61179 8.03854 9.58612 8.09753 9.55238C8.21559 9.48487 8.38584 9.38532 8.59079 9.25921C9.00212 9.00611 9.54641 8.65023 10.0869 8.23532C10.6319 7.81701 11.1487 7.35711 11.5225 6.89944C11.9107 6.42403 12.0623 6.05117 12.0623 5.79313C12.0623 5.53563 11.9109 5.16315 11.5226 4.68796C11.1488 4.23055 10.632 3.77087 10.087 3.35273C9.54652 2.93799 9.00223 2.58224 8.59089 2.32922C8.38594 2.20316 8.21569 2.10364 8.09762 2.03615C8.03863 2.00243 7.99277 1.97676 7.96224 1.95984L7.92826 1.94113L7.92043 1.93687L7.91899 1.93608C7.55451 1.7395 7.41814 1.28459 7.61465 0.920028ZM7.91873 9.65257C7.91879 9.65254 7.91867 9.6526 7.91873 9.65257Z" fill="white"/>
</svg>
